<svg width="132" height="87" viewBox="0 0 132 87" fill="none" xmlns="http://www.w3.org/2000/svg">
<path d="M131.196 32.5983C131.196 26.1429 125.625 23.9733 120.696 22.0715C116.893 20.5983 113.625 19.3393 113.625 16.5C113.625 14.0625 115.982 12.375 119.384 12.375C123.402 12.375 126.643 15.2411 126.67 15.2679C126.884 15.4286 127.125 15.509 127.393 15.4554C127.661 15.4286 127.875 15.2679 128.009 15.0268L130.179 11.1161C130.366 10.7947 130.312 10.3929 130.045 10.0983C129.937 9.99111 127.045 7.04468 121.607 6.42861V1.71432C121.607 1.23218 121.232 0.857178 120.75 0.857178H117.134C116.679 0.857178 116.277 1.23218 116.277 1.71432V6.53575C110.679 7.60718 106.821 11.6786 106.821 16.6072C106.821 23.3304 112.821 25.7411 117.643 27.6429C121.259 29.0893 124.42 30.3483 124.42 32.9197C124.42 35.9465 121.58 37.3393 118.955 37.3393C114.214 37.3393 110.464 33.75 110.411 33.7233C110.25 33.5358 110.009 33.4554 109.768 33.4822C109.527 33.509 109.286 33.6161 109.152 33.8036L106.393 37.4197C106.152 37.7411 106.179 38.1965 106.446 38.5179C106.58 38.6786 110.009 42.4286 116.277 43.3125V48C116.277 48.4822 116.679 48.8572 117.134 48.8572H120.75C121.232 48.8572 121.607 48.4822 121.607 48V43.3125C127.286 42.375 131.196 38.0625 131.196 32.5983Z" fill="white" fill-opacity="0.5"/>
<path d="M25.1964 70.5983C25.1964 64.1429 19.625 61.9733 14.6964 60.0715C10.8929 58.5983 7.62499 57.3393 7.62499 54.5C7.62499 52.0625 9.98214 50.375 13.3839 50.375C17.4018 50.375 20.6429 53.2411 20.6696 53.2679C20.8839 53.4286 21.125 53.509 21.3929 53.4554C21.6607 53.4286 21.875 53.2679 22.0089 53.0268L24.1786 49.1161C24.3661 48.7947 24.3125 48.3929 24.0446 48.0983C23.9375 47.9911 21.0446 45.0447 15.6071 44.4286V39.7143C15.6071 39.2322 15.2321 38.8572 14.75 38.8572H11.1339C10.6786 38.8572 10.2768 39.2322 10.2768 39.7143V44.5358C4.67856 45.6072 0.821422 49.6786 0.821422 54.6072C0.821422 61.3304 6.82142 63.7411 11.6429 65.6429C15.2589 67.0893 18.4196 68.3483 18.4196 70.9197C18.4196 73.9465 15.5804 75.3393 12.9554 75.3393C8.21428 75.3393 4.46428 71.75 4.41071 71.7233C4.24999 71.5358 4.00892 71.4554 3.76785 71.4822C3.52678 71.509 3.28571 71.6161 3.15178 71.8036L0.39285 75.4197C0.151779 75.7411 0.178565 76.1965 0.446422 76.5179C0.58035 76.6786 4.00892 80.4286 10.2768 81.3125V86C10.2768 86.4822 10.6786 86.8572 11.1339 86.8572H14.75C15.2321 86.8572 15.6071 86.4822 15.6071 86V81.3125C21.2857 80.375 25.1964 76.0625 25.1964 70.5983Z" fill="white" fill-opacity="0.5"/>
</svg>
