<svg width="125" height="136" viewBox="0 0 125 136" fill="none" xmlns="http://www.w3.org/2000/svg">
<path d="M124.196 68.5982C124.196 62.1428 118.625 59.9732 113.696 58.0714C109.893 56.5982 106.625 55.3393 106.625 52.5C106.625 50.0625 108.982 48.375 112.384 48.375C116.402 48.375 119.643 51.241 119.67 51.2678C119.884 51.4285 120.125 51.5089 120.393 51.4553C120.661 51.4285 120.875 51.2678 121.009 51.0268L123.179 47.116C123.366 46.7946 123.313 46.3928 123.045 46.0982C122.938 45.991 120.045 43.0446 114.607 42.4285V37.7143C114.607 37.2321 114.232 36.8571 113.75 36.8571H110.134C109.679 36.8571 109.277 37.2321 109.277 37.7143V42.5357C103.679 43.6071 99.8215 47.6785 99.8215 52.6071C99.8215 59.3303 105.821 61.741 110.643 63.6428C114.259 65.0893 117.42 66.3482 117.42 68.9196C117.42 71.9464 114.58 73.3393 111.955 73.3393C107.214 73.3393 103.464 69.75 103.411 69.7232C103.25 69.5357 103.009 69.4553 102.768 69.4821C102.527 69.5089 102.286 69.616 102.152 69.8035L99.3929 73.4196C99.1518 73.741 99.1786 74.1964 99.4465 74.5178C99.5804 74.6785 103.009 78.4285 109.277 79.3125V84C109.277 84.4821 109.679 84.8571 110.134 84.8571H113.75C114.232 84.8571 114.607 84.4821 114.607 84V79.3125C120.286 78.375 124.196 74.0625 124.196 68.5982Z" fill="white" fill-opacity="0.5"/>
<path d="M39.6474 23.9486C39.6474 19.1071 35.4688 17.4799 31.7724 16.0535C28.9197 14.9486 26.4688 14.0044 26.4688 11.875C26.4688 10.0468 28.2367 8.78122 30.788 8.78122C33.8014 8.78122 36.2322 10.9308 36.2523 10.9509C36.413 11.0714 36.5938 11.1317 36.7947 11.0915C36.9956 11.0714 37.1563 10.9509 37.2568 10.7701L38.884 7.83702C39.0246 7.59595 38.9844 7.29461 38.7835 7.07363C38.7032 6.99327 36.5335 4.78345 32.4554 4.32139V0.785681C32.4554 0.424074 32.1742 0.142822 31.8126 0.142822H29.1005C28.759 0.142822 28.4576 0.424074 28.4576 0.785681V4.40175C24.259 5.20532 21.3661 8.25889 21.3661 11.9553C21.3661 16.9977 25.8661 18.8058 29.4822 20.2321C32.1943 21.3169 34.5648 22.2611 34.5648 24.1897C34.5648 26.4598 32.4353 27.5044 30.4666 27.5044C26.9108 27.5044 24.0983 24.8125 24.0581 24.7924C23.9376 24.6518 23.7568 24.5915 23.5759 24.6116C23.3951 24.6317 23.2143 24.712 23.1139 24.8526L21.0447 27.5647C20.8639 27.8058 20.884 28.1473 21.0849 28.3884C21.1853 28.5089 23.7568 31.3214 28.4576 31.9843V35.5C28.4576 35.8616 28.759 36.1428 29.1005 36.1428H31.8126C32.1742 36.1428 32.4554 35.8616 32.4554 35.5V31.9843C36.7143 31.2812 39.6474 28.0468 39.6474 23.9486Z" fill="white" fill-opacity="0.5"/>
<path d="M110.647 122.949C110.647 118.107 106.469 116.48 102.772 115.054C99.9197 113.949 97.4688 113.004 97.4688 110.875C97.4688 109.047 99.2367 107.781 101.788 107.781C104.801 107.781 107.232 109.931 107.252 109.951C107.413 110.071 107.594 110.132 107.795 110.091C107.996 110.071 108.156 109.951 108.257 109.77L109.884 106.837C110.025 106.596 109.984 106.295 109.784 106.074C109.703 105.993 107.534 103.783 103.455 103.321V99.7857C103.455 99.4241 103.174 99.1428 102.813 99.1428H100.101C99.759 99.1428 99.4576 99.4241 99.4576 99.7857V103.402C95.259 104.205 92.3661 107.259 92.3661 110.955C92.3661 115.998 96.8661 117.806 100.482 119.232C103.194 120.317 105.565 121.261 105.565 123.19C105.565 125.46 103.435 126.504 101.467 126.504C97.9108 126.504 95.0983 123.812 95.0581 123.792C94.9376 123.652 94.7568 123.591 94.576 123.612C94.3951 123.632 94.2143 123.712 94.1139 123.853L92.0447 126.565C91.8639 126.806 91.884 127.147 92.0849 127.388C92.1853 127.509 94.7567 130.321 99.4576 130.984V134.5C99.4576 134.862 99.759 135.143 100.101 135.143H102.813C103.174 135.143 103.455 134.862 103.455 134.5V130.984C107.714 130.281 110.647 127.047 110.647 122.949Z" fill="white" fill-opacity="0.5"/>
<path d="M25.1965 106.598C25.1965 100.143 19.6251 97.9732 14.6965 96.0714C10.8929 94.5982 7.62505 93.3393 7.62505 90.5C7.62505 88.0625 9.9822 86.375 13.384 86.375C17.4018 86.375 20.6429 89.241 20.6697 89.2678C20.884 89.4285 21.1251 89.5089 21.3929 89.4553C21.6608 89.4285 21.8751 89.2678 22.009 89.0267L24.1786 85.116C24.3661 84.7946 24.3126 84.3928 24.0447 84.0982C23.9376 83.991 21.0447 81.0446 15.6072 80.4285V75.7142C15.6072 75.2321 15.2322 74.8571 14.7501 74.8571H11.134C10.6786 74.8571 10.2768 75.2321 10.2768 75.7142V80.5357C4.67863 81.6071 0.821483 85.6785 0.821483 90.6071C0.821483 97.3303 6.82148 99.741 11.6429 101.643C15.259 103.089 18.4197 104.348 18.4197 106.92C18.4197 109.946 15.5804 111.339 12.9554 111.339C8.21434 111.339 4.46434 107.75 4.41077 107.723C4.25005 107.536 4.00898 107.455 3.76791 107.482C3.52684 107.509 3.28577 107.616 3.15184 107.804L0.392911 111.42C0.15184 111.741 0.178626 112.196 0.446483 112.518C0.580411 112.679 4.00898 116.429 10.2768 117.312V122C10.2768 122.482 10.6786 122.857 11.134 122.857H14.7501C15.2322 122.857 15.6072 122.482 15.6072 122V117.312C21.2858 116.375 25.1965 112.062 25.1965 106.598Z" fill="white" fill-opacity="0.5"/>
</svg>
